<?xml version="1.0" standalone="no"?>
<!DOCTYPE svg PUBLIC "-//W3C//DTD SVG 1.1//EN" "http://www.w3.org/Graphics/SVG/1.1/DTD/svg11.dtd" >
<!--
2013-9-30: Created.
-->
<svg>
<metadata>
Created by iconfont
</metadata>
<defs>

<font id="iconfont" horiz-adv-x="1024" >
  <font-face
    font-family="iconfont"
    font-weight="500"
    font-stretch="normal"
    units-per-em="1024"
    ascent="896"
    descent="-128"
  />
    <missing-glyph />
    
    <glyph glyph-name="shouji" unicode="&#59070;" d="M741.888 891.776 281.984 891.776c-41.28 0-74.624-31.616-74.624-70.592l0-874.24c0-38.656 33.344-70.656 74.624-70.656l459.968 0c41.472 0 74.688 31.872 74.688 70.656L816.64 821.184C816.512 860.096 783.232 891.776 741.888 891.776L741.888 891.776 741.888 891.776zM500.736-94.848c-20.672 0-37.312 15.872-37.312 35.392 0 19.456 16.64 35.392 37.312 35.392 20.544 0 37.248-15.936 37.248-35.392C537.984-79.104 521.28-94.848 500.736-94.848L500.736-94.848 500.736-94.848zM773.824 6.528 250.112 6.528 250.112 845.44l523.776 0L773.824 6.528 773.824 6.528 773.824 6.528z"  horiz-adv-x="1024" />

    
    <glyph glyph-name="duigou" unicode="&#59026;" d="M512 896c-281.6 0-512-230.4-512-512s230.4-512 512-512 512 230.4 512 512S793.6 896 512 896L512 896zM844.8 529.92 417.28 102.4l-238.08 238.08c-25.6 25.6-25.6 64 0 89.6 25.6 25.6 64 25.6 89.6 0l145.92-148.48L755.2 619.52c25.6 25.6 64 25.6 89.6 0C870.4 593.92 870.4 555.52 844.8 529.92L844.8 529.92z"  horiz-adv-x="1024" />

    
    <glyph glyph-name="jia" unicode="&#58904;" d="M511.891 830.737c-246.961 0-446.628-200.212-446.628-446.628 0-246.961 200.212-446.628 446.628-446.628 246.415 0 446.628 200.212 446.628 446.628-0.109 246.415-199.776 446.628-446.628 446.628zM720.186 346.317h-168.646v-169.956c0-16.165-22.938-29.164-38.448-29.164s-38.448 12.998-38.448 29.164v169.956h-170.502c-16.165 0-29.164 22.938-29.164 38.448s12.998 38.448 29.164 38.448h169.956v168.646c0 16.165 22.938 29.164 38.448 29.164s38.448-12.998 38.448-29.164v-168.1h168.646c16.165 0 29.164-22.938 29.164-38.448 0-15.401-13.107-38.994-28.618-38.994z"  horiz-adv-x="1024" />

    
    <glyph glyph-name="U" unicode="&#58911;" d="M1311.84 891.18c-56.079-9.896-92.32-18.67-131.653-60.763-12.614-13.498-24.339-27.83-34.191-43.486-21.631-34.377-32.869-73.425-37.705-113.518-12.14-100.627 5.176-203.904 8.623-304.663 2.095-61.263 7.041-122.886-2.573-183.793-2.992-18.953-8.229-39.4-15.711-61.345-7.483-21.947-19.7-41.397-36.657-58.354-15.96-17.954-33.665-32.418-53.116-43.391-19.45-10.972-38.652-19.45-57.605-25.435-18.95-5.985-36.907-9.726-53.864-11.224-8.186-0.723-15.66-1.266-22.453-1.638-22.248 1.274-42.409 3.356-62.293 6.295 22.883-3.16 4.927 0.58-14.024 6.567-18.953 5.983-38.155 14.464-57.605 25.435-19.453 10.973-37.158 25.437-53.116 43.391-16.957 16.957-29.176 36.41-36.657 58.354s-12.719 42.392-15.711 61.345c-9.614 60.907-4.67 122.53-2.573 183.793 3.447 100.759 20.763 204.036 8.623 304.663-4.836 40.096-16.075 79.141-37.705 113.518-9.852 15.656-21.576 29.989-34.191 43.486-39.335 42.093-75.575 50.867-131.655 60.763-0.999-112.716-1.498-214.958-1.498-306.729v-363.584c0-18.953 2.245-40.149 6.734-63.59 4.488-23.441 11.47-46.882 20.948-70.324 9.476-23.441 21.196-45.884 35.161-67.331 13.965-21.443 30.922-39.15 50.872-53.115 18.951-13.965 41.147-26.933 66.582-38.901 25.435-11.971 52.867-22.193 82.293-30.674 29.426-8.478 59.85-14.961 91.27-19.45 28.814-4.115 56.991-5.898 84.549-5.399 27.556-0.496 55.734 1.284 84.547 5.399 31.421 4.489 61.844 10.973 91.27 19.45 29.426 8.48 56.86 18.703 82.295 30.674 25.435 11.969 47.63 24.938 66.582 38.901 19.95 13.965 36.907 31.673 50.872 53.115 13.965 21.446 25.686 43.89 35.161 67.331 9.478 23.443 16.462 46.883 20.948 70.324 4.489 23.441 6.736 44.637 6.736 63.59v363.584c-0.004 91.771-0.504 194.012-1.505 306.729z"  horiz-adv-x="1753" />

    
    <glyph glyph-name="fuwuzhongxin" unicode="&#58907;" d="M870.4 121.6h-51.2v364.8c0 32-25.6 57.6-57.6 57.6h-172.8v-416h-12.8v544c0 32-25.6 57.6-57.6 57.6h-249.6c-32 0-57.6-25.6-57.6-57.6v-550.4h-44.8c-12.8 0-25.6-12.8-25.6-32 0-12.8 12.8-25.6 25.6-25.6h704c12.8 0 25.6 12.8 25.6 32 0 12.8-12.8 25.6-25.6 25.6z m-499.2 128c0-6.4 0-6.4-6.4-6.4h-64c-6.4 0-6.4 0-6.4 6.4v19.2c0 6.4 0 6.4 6.4 6.4h57.6c6.4 0 6.4 0 6.4-6.4l6.4-19.2z m0 140.8c0-6.4 0-6.4-6.4-6.4h-64c-6.4 0-6.4 0-6.4 6.4v25.6c0 6.4 0 6.4 6.4 6.4h57.6c6.4 0 6.4 0 6.4-6.4l6.4-25.6z m0 147.2c0-6.4 0-6.4-6.4-6.4h-64c-6.4 0-6.4 0-6.4 6.4v19.2c0 6.4 0 6.4 6.4 6.4h57.6c6.4 0 6.4 0 6.4-6.4l6.4-19.2z m121.6-288c0-6.4 0-6.4-6.4-6.4h-64c-6.4 0-6.4 0-6.4 6.4v19.2c0 6.4 0 6.4 6.4 6.4h57.6c6.4 0 6.4 0 6.4-6.4v-19.2h6.4z m0 140.8c0-6.4 0-6.4-6.4-6.4h-64c-6.4 0-6.4 0-6.4 6.4v25.6c0 6.4 0 6.4 6.4 6.4h57.6c6.4 0 6.4 0 6.4-6.4v-25.6h6.4z m0 147.2c0-6.4 0-6.4-6.4-6.4h-64c-6.4 0-6.4 0-6.4 6.4v19.2c0 6.4 0 6.4 6.4 6.4h57.6c6.4 0 6.4 0 6.4-6.4v-19.2h6.4z m224-288c0-6.4 0-6.4-6.4-6.4h-57.6c-6.4 0-6.4 0-6.4 6.4v19.2c0 6.4 0 6.4 6.4 6.4h57.6c6.4 0 6.4 0 6.4-6.4v-19.2z m0 140.8c0-6.4 0-6.4-6.4-6.4h-57.6c-6.4 0-6.4 0-6.4 6.4v25.6c0 6.4 0 6.4 6.4 6.4h57.6c6.4 0 6.4 0 6.4-6.4v-25.6z"  horiz-adv-x="1024" />

    
    <glyph glyph-name="jifen" unicode="&#58880;" d="M767.673996 673.9340520000001C767.673996 761.02004 616.756631 831.616766 430.590978 831.616766S93.508982 761.02004 93.508982 673.9340520000001c0-0.109349 0.008176-0.218699 0.009198-0.328048H93.508982v-485.437317c0-82.914363 136.806196-150.882619 310.587784-157.203418 8.742834-0.317828 10.139848-0.254467 10.139849-0.254467 8.690715-0.13592 15.773892 6.558914 16.304287 15.104511-0.529373 8.556838-7.612551 15.438691-16.296112 15.56337 0 0-1.239633-0.068471-9.925237 0.259576-76.299242 2.881916-146.569964 18.233741-199.089309 42.801565-53.187705 24.880543-81.061557 55.707848-81.061557 83.728863V365.27776400000005c48.235305-49.092727 148.775345-84.609788 268.244056-90.910147 12.531226-0.661206 21.832048-0.706172 21.832047-0.706172a15.982371 15.982371 0 0 1 16.29509 15.03604c-0.529373 8.560926-7.612551 15.455042-16.297133 15.632862 0 0-8.937006 0.039856-21.339466 0.71537-71.877238 3.916136-137.78523 18.937868-187.674059 42.275257-53.187705 24.880543-81.061557 55.707848-81.061557 83.728862V608.157892c53.296032-54.240319 170.44899-91.907577 306.423313-91.907577s253.128303 37.666236 306.424335 91.907577v-76.061126c0-8.458731 6.863457-15.32321 15.329342-15.323209 8.467928 0 15.329341 6.860391 15.329341 15.323209V673.6049820000001h-0.009198c0.001022 0.110371 0.009198 0.218699 0.009198 0.32907z m-111.72024-83.728862c-58.496766-27.363896-139.018731-43.296192-225.362778-43.296192s-166.86499 15.931273-225.362778 43.296192c-53.187705 24.880543-81.061557 55.707848-81.061557 83.728862 0 28.021014 27.87283 58.847297 81.061557 83.728862C263.725988 785.02681 344.24693 800.958084 430.590978 800.958084s166.86499-15.931273 225.362778-43.296192c53.187705-24.880543 81.061557-55.707848 81.061557-83.728862 0-28.019992-27.87283-58.847297-81.061557-83.72784zM430.590978 289.717397c0-0.344399-0.030659-0.680623-0.051098-1.019912 0.021461-0.340311 0.051098-0.677557 0.051098-1.021956v2.041868zM430.590978 46.835226000000034c0-0.344399-0.030659-0.681645-0.051098-1.020935 0.021461-0.339289 0.051098-0.676535 0.051098-1.021956v2.042891zM510.858475 313.26428699999997v-109.201117c0-13.962986 15.946603-31.609102 48.281293-46.741206 37.638643-17.615457 89.955641-27.97196 146.206148-27.97196s108.566483 10.356503 146.206148 27.97196c32.333669 15.133126 48.281293 32.779242 48.281293 46.741206V313.26428699999997c-39.056096-31.261637-111.526068-52.2659-194.486419-52.2659s-155.432367 21.004263-194.488463 52.2659zM930.491018 366.370236c0 58.195289-100.800639 105.37287-225.145102 105.37287s-225.146124-47.176559-225.146124-105.37287c0-0.073581 0.00511-0.14614 0.006132-0.219721h-0.006132v-324.395433c0-58.195289 100.800639-105.37287 225.146124-105.37287S930.491018-16.440207999999984 930.491018 41.75610400000005V366.15153699999996h-0.006132c0.001022 0.072559 0.006132 0.14614 0.006132 0.218699z m-30.658683-162.307066c0-13.962986-15.947625-31.609102-48.281293-46.741206-37.639665-17.615457-89.955641-27.97196-146.206148-27.97196s-108.566483 10.356503-146.206147 27.97196c-32.333669 15.133126-48.281293 32.779242-48.281294 46.741206V313.26428699999997c39.056096-31.261637 111.526068-52.2659 194.487441-52.2659s155.431345 21.004263 194.486419 52.2659v-109.201117zM559.139768 413.112463c37.638643 17.615457 89.955641 27.97196 146.206148 27.97196s108.566483-10.356503 146.206148-27.97196c32.333669-15.133126 48.281293-32.779242 48.281293-46.741206s-15.947625-31.609102-48.281293-46.741205c-37.639665-17.615457-89.955641-27.97196-146.206148-27.97196s-108.566483 10.356503-146.206148 27.97196c-32.333669 15.133126-48.281293 32.77822-48.281293 46.741205s15.946603 31.60808 48.281293 46.741206zM899.832335 41.75610400000005c0-13.962986-15.947625-31.609102-48.281293-46.741206C813.912399-22.60158100000001 761.595401-32.958083999999985 705.345916-32.958083999999985c-56.250507 0-108.566483 10.356503-146.206148 27.97196-32.333669 15.133126-48.281293 32.77822-48.281293 46.741206V150.957222c39.056096-31.261637 111.526068-52.2659 194.487441-52.265901s155.431345 21.004263 194.486419 52.265901v-109.201118z"  horiz-adv-x="1024" />

    
    <glyph glyph-name="huiyuan" unicode="&#58885;" d="M396.288 121.344a18.432 18.432 0 0 0-15.872 12.288l-24.064 67.072-72.192-15.872a18.432 18.432 0 0 0-19.968 26.624l81.408 148.48a18.432 18.432 0 0 0 12.8 9.728 17.92 17.92 0 0 0 15.872-7.168 194.048 194.048 0 0 1 99.84-70.656 18.432 18.432 0 0 0 10.752-26.112l-72.704-134.656a18.432 18.432 0 0 0-15.872-9.728z m-41.984 116.736a37.376 37.376 0 0 0 35.328-25.088l10.24-28.672 43.008 79.872a231.936 231.936 0 0 0-79.36 54.784L314.368 230.4l31.232 7.168zM512 249.856a190.976 190.976 0 1 0 190.976 190.976A190.976 190.976 0 0 0 512 249.856z m0 345.088a153.6 153.6 0 1 1 153.6-153.6 153.6 153.6 0 0 1-153.6 153.6zM627.2 120.832a18.432 18.432 0 0 0-15.872 9.728l-73.728 134.656a18.432 18.432 0 0 0 10.752 26.624 193.536 193.536 0 0 1 102.4 71.68 17.92 17.92 0 0 0 15.872 7.68 18.432 18.432 0 0 0 14.848-9.728l80.896-150.016a18.432 18.432 0 0 0-20.48-26.624l-71.68 16.384-25.088-68.096a18.432 18.432 0 0 0-15.872-12.288z m-47.616 142.848l44.032-79.872 10.752 29.184a37.376 37.376 0 0 0 44.032 24.064l31.744-7.168-51.2 90.112a231.424 231.424 0 0 0-79.36-56.32zM512-52.224A436.224 436.224 0 1 0 948.224 384 436.736 436.736 0 0 0 512-52.224z m0 854.016A417.792 417.792 0 1 1 929.792 384 418.304 418.304 0 0 1 512 801.792z"  horiz-adv-x="1024" />

    
    <glyph glyph-name="tuijian" unicode="&#58908;" d="M100.84053333 16.43519999h204.66986667V496.09173333H100.84053333v-479.65653334z m67.5008 204.0256h67.39733334v-136.77546666H168.34133333V220.46079999000006zM905.7856 496.09173333H650.98773333l49.16373334 248.64746666c9.584 48.46933333-27.50826667 93.61493333-76.91626667 93.61493334a78.40533333 78.40533333 0 0 1-67.15093333-37.93066667l-183.43573334-304.33066667v-479.65866666h449.3632c32.752 0 62.44906667 19.2352 75.84 49.12426666a1093.15306667 1093.15306667 0 0 1 86.7808 308.752l3.58933334 28.17066667c6.33066667 49.66613333-32.36906667 93.61066667-82.43626667 93.61066667z"  horiz-adv-x="1024" />

    
    <glyph glyph-name="xuanxiang" unicode="&#58941;" d="M346.4 723.8h627.2c26.8 0 48.6 21.8 48.6 48.6S1000.4 821 973.6 821H346.4c-26.8 0-48.6-21.8-48.6-48.6s21.8-48.6 48.6-48.6z m0-387.4h624.9c26.8 0 48.6 21.8 48.6 48.6s-21.8 48.6-48.6 48.6H346.4c-26.8 0-48.6-21.8-48.6-48.6 0-26.9 21.8-48.6 48.6-48.6z m627.2-292.5H346.4c-26.8 0-48.6-21.8-48.6-48.6s21.8-48.6 48.6-48.6h627.2c26.8 0 48.6 21.8 48.6 48.6s-21.7 48.6-48.6 48.6z m0 0M1.8 772.4c0-53.7 43.5-97.2 97.2-97.2s97.2 43.5 97.2 97.2S152.7 869.6 99 869.6 1.8 826.1 1.8 772.4z m0 0M1.8 385.5c0-53.7 43.5-97.2 97.2-97.2s97.2 43.5 97.2 97.2-43.5 97.2-97.2 97.2-97.2-43.5-97.2-97.2z m0 0M1.8-4.4c0-53.7 43.5-97.2 97.2-97.2s97.2 43.5 97.2 97.2-43.5 97.2-97.2 97.2c-53.7-0.1-97.2-43.6-97.2-97.2z m0 0"  horiz-adv-x="1024" />

    
    <glyph glyph-name="fenxiang-copy" unicode="&#59580;" d="M699.392 297.472c-36.352 0-66.048-19.456-79.872-49.664L443.904 322.55999999999995c10.24 15.872 15.872 35.328 15.872 56.32 0 8.704-1.024 17.408-3.072 25.6l112.128 87.04c14.848-11.264 33.792-17.92 54.784-17.92 50.688 0 88.576 37.888 88.576 88.064s-37.888 88.064-88.576 88.064-88.064-37.888-88.064-88.064c0-12.8 2.56-24.576 6.656-34.816L438.784 447.488c-20.48 30.72-54.272 52.224-92.672 52.224-62.976 0-113.664-50.688-113.664-113.664s50.688-113.664 113.664-113.664c23.552 0 45.568 6.144 63.488 17.408l201.728-86.016c2.56-47.616 39.424-82.944 88.064-82.944 50.688 0 88.064 37.888 88.064 88.064s-37.888 88.576-88.064 88.576z m-75.776 315.392c25.088 0 50.688-18.944 50.688-50.688s-18.944-50.688-50.688-50.688-50.688 25.088-50.688 50.688 25.6 50.688 50.688 50.688z m-277.504-302.592c-37.888 0-69.632 31.744-69.632 69.632s31.744 69.632 69.632 69.632 69.632-31.744 69.632-69.632c-0.512-37.888-31.744-69.632-69.632-69.632z m353.28-151.552c-31.744 0-50.688 18.944-50.688 50.688s25.088 50.688 50.688 50.688 50.688-18.944 50.688-50.688c-0.512-31.744-19.456-50.688-50.688-50.688zM509.952-74.75199999999995c-61.952 0-122.368 12.288-179.2 36.352-54.784 23.04-103.936 56.32-146.432 98.816s-75.776 91.648-98.816 146.432c-24.064 56.832-36.352 117.248-36.352 179.2s12.288 122.368 36.352 179.2C108.544 620.0319999999999 141.824 669.184 184.32 711.6800000000001s91.648 75.776 146.432 98.816c56.832 24.064 117.248 36.352 179.2 36.352s122.368-12.288 179.2-36.352c54.784-23.04 103.936-56.32 146.432-98.816s75.776-91.648 98.816-146.432c24.064-56.832 36.352-117.248 36.352-179.2s-12.288-122.368-36.352-179.2c-23.04-54.784-56.32-103.936-98.816-146.432s-91.648-75.776-146.432-98.816c-56.832-24.064-117.248-36.352-179.2-36.352z m0 875.52c-228.864 0-414.72-185.856-414.72-414.72s185.856-414.72 414.72-414.72 414.72 185.856 414.72 414.72-185.856 414.72-414.72 414.72z"  horiz-adv-x="1024" />

    
    <glyph glyph-name="jiantouyou" unicode="&#58881;" d="M312.888889-99.55555600000002c-17.066667 0-28.444444 5.688889-39.822222 17.066667-22.755556 22.755556-17.066667 56.888889 5.688889 79.644445l364.088888 329.955555c11.377778 11.377778 17.066667 22.755556 17.066667 34.133333 0 11.377778-5.688889 22.755556-17.066667 34.133334L273.066667 708.266667c-22.755556 22.755556-28.444444 56.888889-5.688889 79.644444 22.755556 22.755556 56.888889 28.444444 79.644444 5.688889l364.088889-312.888889c34.133333-28.444444 56.888889-73.955556 56.888889-119.466667s-17.066667-85.333333-51.2-119.466666l-364.088889-329.955556c-11.377778-5.688889-28.444444-11.377778-39.822222-11.377778z"  horiz-adv-x="1024" />

    
    <glyph glyph-name="remove" unicode="&#59140;" d="M512-128C229.248-128 0 101.248 0 384S229.248 896 512 896s512-229.248 512-512-229.248-512-512-512z m0 896C299.968 768 128 596.032 128 384s171.968-384 384-384 384 171.968 384 384S724.032 768 512 768z m192-448H320a64 64 0 1 0 0 128h384a64 64 0 0 0 64-64c0-35.392-28.608-64-64-64z"  horiz-adv-x="1024" />

    
    <glyph glyph-name="icon-" unicode="&#58882;" d="M283.27443299-31.914680780000026a110.10198743 110.10198743 0 0 0-109.95116277 109.95116278L173.32327022 649.96351801A110.10198743 110.10198743 0 0 0 283.27443299 759.91468079l457.52654634 0a110.10198743 110.10198743 0 0 0 109.95116278-109.95116278l0-571.8516237a110.10198743 110.10198743 0 0 0-109.95116278-109.95116277z m0 743.41465203a61.68727789 61.68727789 0 0 1-61.61186557-61.61186555l0-571.8516237a61.68727789 61.68727789 0 0 1 61.61186557-61.61186556l457.52654634 0a61.68727789 61.68727789 0 0 1 61.61186557 61.61186556L802.4128449 649.96351801a61.68727789 61.68727789 0 0 1-61.61186557 61.61186556zM331.01043164 339.79264523999996a24.20735476 24.20735476 0 1 0 0 48.3392972l361.97913672 0a24.20735476 24.20735476 0 1 0 0-48.3392972zM331.01043164 225.46756789999995a24.20735476 24.20735476 0 1 0 0 48.03764792l246.97534849 0a24.20735476 24.20735476 0 1 0 0-48.41470953zM331.01043164 454.49478418a24.20735476 24.20735476 0 1 0 0 48.41470954l361.97913672 0a24.20735476 24.20735476 0 1 0 0-48.41470954z"  horiz-adv-x="1024" />

    
    <glyph glyph-name="you" unicode="&#59103;" d="M846.107115 353.693442a46.712453 46.712453 0 1 1 66.083292 66.175976L449.700046 882.359778A46.712453 46.712453 0 1 1 383.709437 816.183803l462.490361-462.490361zM383.709437-47.347798a46.712453 46.712453 0 1 1 65.990609-66.083292l462.490361 462.49036a46.712453 46.712453 0 1 1-66.083292 66.083292l-462.490361-462.49036z"  horiz-adv-x="1112" />

    
    <glyph glyph-name="xinaixin" unicode="&#58897;" d="M1001.6 742.4s0 3.2 0 0c-118.4 118.4-304 121.6-425.6 12.8-121.6 108.8-307.2 105.6-422.4-9.6-118.4-118.4-121.6-310.4-3.2-428.8l3.2-3.2 355.2-352c38.4-38.4 99.2-38.4 137.6 0l355.2 352c118.4 118.4 118.4 310.4 0 428.8z m-115.2-249.6c-9.6 0-16 6.4-16 16 0 57.6-48 105.6-105.6 105.6-9.6 0-16 6.4-16 16s6.4 16 16 16c76.8 0 137.6-60.8 137.6-137.6 0-9.6-6.4-16-16-16z"  horiz-adv-x="1171" />

    
    <glyph glyph-name="guanbi" unicode="&#59041;" d="M573.207 368.166l404.184 404.22a52.811 52.811 0 0 1 0 74.401l-2.217 2.217a52.836 52.836 0 0 1-74.413 0l-404.209-404.73-404.22 404.9a52.823 52.823 0 0 1-74.401 0l-2.217-2.217a51.915 51.915 0 0 1 0-74.414l404.22-404.377-404.22-404.22a52.823 52.823 0 0 1 0-74.402l2.217-2.217a52.811 52.811 0 0 1 74.401 0l404.22 404.22 404.22-404.22a52.823 52.823 0 0 1 74.414 0l2.217 2.217a52.811 52.811 0 0 1 0 74.401z m0 0"  horiz-adv-x="1366" />

    
    <glyph glyph-name="MBEfenggeduosetubiao-gouwuche" unicode="&#58913;" d="M455.168 251.904h179.2V286.72H474.624zM542.208 182.272c0-25.6 20.48-46.592 46.08-46.592s46.592 20.992 46.592 46.592c0 4.096-0.512 7.68-1.536 11.776h-89.6c-1.024-3.584-1.536-7.68-1.536-11.776zM355.84 228.864c-25.6 0-46.08-20.992-46.08-46.592s20.48-46.592 46.08-46.592 46.592 20.992 46.592 46.592-20.48 46.592-46.592 46.592zM428.032 298.496H366.08c-3.072 0-5.632 2.56-5.632 5.632 0 1.024 0 2.048 0.512 2.56l20.992 37.888h46.08l-71.68 151.04h-46.592v46.592h75.776l22.016-46.592h257.536l12.8 23.552c2.048 3.072 3.072 7.168 3.072 11.264 0 12.8-10.24 23.04-23.04 23.04h-343.04l-22.016 46.592H216.576v-46.592h46.592l83.456-176.128-31.232-56.832c-3.584-6.656-5.632-14.336-5.632-22.528 0-25.6 20.992-46.592 46.592-46.592H404.48c1.024 3.584 2.56 7.168 4.096 10.752l19.456 36.352zM680.96 170.496c-25.6 0-46.08-20.992-46.08-46.592s20.48-46.592 46.08-46.592 46.592 20.992 46.592 46.592c0 26.112-20.992 46.592-46.592 46.592zM449.024 170.496c-25.6 0-46.08-20.992-46.08-46.592s20.48-46.592 46.08-46.592 46.592 20.992 46.592 46.592c-0.512 26.112-20.992 46.592-46.592 46.592zM455.168 251.904l18.944 34.816h173.056c17.408 0 32.768 9.728 40.448 24.064l82.944 150.528c2.048 3.072 3.072 7.168 3.072 11.264 0 12.8-10.24 23.04-23.04 23.04h-343.04l-22.016 46.592H309.76v-46.592h46.592l71.68-151.04 11.776-25.088-11.776-20.992-19.456-35.84c-2.048-3.584-3.072-7.168-4.096-10.752-1.024-3.584-1.536-7.68-1.536-11.776 0-25.6 20.992-46.592 46.592-46.592h279.04v46.592H458.752c-3.072 0-5.632 2.56-5.632 5.632 0 1.024 0 2.048 0.512 2.56l1.536 3.584zM223.232 199.68h-29.696v29.696c0 6.656-5.12 11.776-11.776 11.776s-11.776-5.12-11.776-11.776v-29.696h-29.696c-6.656 0-11.776-5.12-11.776-11.776 0-6.656 5.12-11.776 11.776-11.776h29.696v-29.696c0-6.656 5.12-11.776 11.776-11.776s11.776 5.12 11.776 11.776v29.696h29.696c6.656 0 11.776 5.12 11.776 11.776-0.512 6.656-5.632 11.776-11.776 11.776zM172.032 458.752h65.536v-65.536H172.032zM861.696 240.64m-32.768 0a32.768 32.768 0 1 1 65.536 0 32.768 32.768 0 1 1-65.536 0ZM825.856 597.504l-89.088 89.088c-3.072 3.072-8.192 4.096-12.8 2.56-4.096-2.048-7.168-6.144-7.168-10.752v-89.088c0-3.072 1.536-6.144 3.584-8.192 2.048-2.048 5.12-3.584 8.192-3.584h89.088c4.608 0 8.704 3.072 10.752 7.168 1.536 4.608 0.512 9.728-2.56 12.8z m-86.016 3.584V650.24l49.152-49.152h-49.152z"  horiz-adv-x="1024" />

    
    <glyph glyph-name="renwu-touxiang" unicode="&#58894;" d="M856.1664 86.42560000000003A425.1136 425.1136 0 0 1 977.0496 384a426.5984 426.5984 0 0 1-426.6496 426.6496 426.6496 426.6496 0 0 1-303.9232-726.1184l192.256 117.6064 30.6176 69.5296c-34.7648 28.7232-57.6 72.2944-57.6 118.7328V504.8832a135.168 135.168 0 0 0 270.2848 0v-114.4832c0-46.336-23.0912-90.624-58.3168-119.7568l29.7472-68.5568 202.7008-115.6608zM550.4-128c-282.7264 0-512 229.2736-512 512 0 282.7776 229.2736 512 512 512s512-229.2224 512-512c0-282.7264-229.2736-512-512-512z"  horiz-adv-x="1126" />

    
    <glyph glyph-name="dd_active" unicode="&#58883;" d="M234.41187483-99.43304666999995a133.62303423 133.62303423 0 0 0-133.43998895 133.43998897L100.97188588 728.11453919A133.62303423 133.62303423 0 0 0 234.41187483 861.55452815l555.26777297 0a133.62303423 133.62303423 0 0 0 133.43998897-133.43998896l0-694.01607428a133.62303423 133.62303423 0 0 0-133.43998897-133.43998895z m0 902.23004881a74.86550821 74.86550821 0 0 1-74.7739856-74.77398557l0-694.01607427a74.86550821 74.86550821 0 0 1 74.7739856-74.77398558l555.26777297 0a74.86550821 74.86550821 0 0 1 74.7739856 74.77398558L864.4536334 728.11453919a74.86550821 74.86550821 0 0 1-74.7739856 74.77398557zM292.34569718 351.68197775a29.37876299 29.37876299 0 1 0 0 58.66600336l439.30860564 0a29.37876299 29.37876299 0 1 0 0-58.66600336zM292.34569718 212.93367648000003a29.37876299 29.37876299 0 1 0 0 58.29991284l299.73660072 0a29.37876299 29.37876299 0 1 0 0-58.75752598zM292.34569718 490.88789215a29.37876299 29.37876299 0 1 0 0 58.757526l439.30860564 0a29.37876299 29.37876299 0 1 0 0-58.757526z"  horiz-adv-x="1024" />

    
    <glyph glyph-name="xuanxiang1" unicode="&#58884;" d="M924.9 694H97.8c-19 0-34.5 15.4-34.5 34.5 0 19 15.4 34.5 34.5 34.5h827.1c19 0 34.5-15.4 34.5-34.5-0.1-19-15.5-34.5-34.5-34.5z m0-344.6H97.8c-19 0-34.5 15.4-34.5 34.5 0 19 15.4 34.5 34.5 34.5h827.1c19 0 34.5-15.4 34.5-34.5-0.1-19.1-15.5-34.5-34.5-34.5z m0-344.6H97.8c-19 0-34.5 15.4-34.5 34.5 0 19 15.4 34.5 34.5 34.5h827.1c19 0 34.5-15.4 34.5-34.5-0.1-19.1-15.5-34.5-34.5-34.5z m0 0"  horiz-adv-x="1024" />

    
    <glyph glyph-name="shoushi-tucao" unicode="&#58886;" d="M958.88 370.517c-8.343 58.224-114.549 409.896-128.934 435.665-9.827 17.611-26.706 26.079-50.269 25.859-41.822-0.797-104.374-1.116-164.874-1.424-164.993-0.837-217.917-1.624-227.625-4.911-39.984-13.488-59.08-43.73-58.373-92.43l1.39-94.602c1.599-107.701 3.078-207.672 4.318-321.539 0.199-18.777 6.44-31.836 20.854-43.65 11.68-9.573 24.061-18.209 36.03-26.557 58.179-40.572 118.335-82.539 128.699-253.992 0.025-0.418 0.07-0.827 0.13-1.225 3.043-20.62 13.398-37.315 29.152-47.007 9.314-5.728 19.962-8.626 31.184-8.626 7.436 0 15.121 1.275 22.831 3.845 17.024 5.668 59.314 24.515 84.208 77.02 30.466 64.27 25.077 155.206-15.988 270.538 45.722 0.628 157.184 2.201 214.71 3.138 26.885 0.428 46.952 8.198 59.638 23.07 11.968 14.044 16.316 33.16 12.919 56.828zM247.114 824.392c-36.159-0.388-72.314-0.946-108.468-1.574-36.717-0.638-51.002-14.723-52.705-51.968-2.714-59.339-7.571-154.22-12.023-241.232-5.14-100.449-9.583-187.192-9.901-202.811-0.309-15.151 3.611-26.955 11.64-35.103 7.944-8.049 19.539-12.133 34.481-12.133h0.553c47.475 0.339 91.136 0.956 133.461 1.922 38.127 0.867 55.654 18.986 55.16 57.028-1.016 77.598-5.2 363.825-6.375 440.835-0.534 34.855-11.108 45.046-45.823 45.036z"  horiz-adv-x="1024" />

    
    <glyph glyph-name="soushuo" unicode="&#58887;" d="M240.776 655.1279999999999A302.952 302.952 0 0 1 157.328 384c18.048 81.912 60.48 161.952 126.576 228.096C350.048 678.264 430.088 720.672 512 738.72c-95.28 17.952-197.52-9.864-271.224-83.592zM959.6 93.26400000000001l-114.096 114.096a110.64 110.64 0 0 1-87 31.992c107.304 155.208 91.8 369.744-46.392 507.96-155.568 155.616-407.856 155.616-563.472 0-155.568-155.616-155.568-407.928 0-563.544 138.192-138.216 352.56-153.6 507.864-46.296-2.4-31.2 8.304-63.312 31.992-87l114.096-114.12c43.2-43.104 113.784-43.104 156.888 0 43.32 43.104 43.32 113.712 0.12 156.912zM665.84 230.15999999999997c-130.008-130.008-340.68-130.008-470.64 0-130.008 130.008-130.008 340.728 0 470.736 129.96 130.008 340.632 130.008 470.64 0 129.984-129.912 129.984-340.728 0-470.736z"  horiz-adv-x="1024" />

    
    <glyph glyph-name="sousuo" unicode="&#58888;" d="M905.1 24.7L741.5 188.4c55.2 67 88.3 152.8 88.3 246.3 0 214-173.5 387.5-387.5 387.5S54.8 648.7 54.8 434.6s173.5-387.5 387.5-387.5c87.7 0 168.6 29.1 233.5 78.3l165-165c17.8-17.8 46.6-17.8 64.3 0 17.8 17.8 17.8 46.6 0 64.3zM127.9 434.6c0 173.6 140.8 314.4 314.4 314.4s314.4-140.8 314.4-314.4-140.8-314.4-314.4-314.4S127.9 261 127.9 434.6z"  horiz-adv-x="1024" />

    
    <glyph glyph-name="jiantouzuo" unicode="&#58909;" d="M705-27c-6.4 0-12.8 2.4-17.7 7.3l-386 386c-9.8 9.8-9.8 25.6 0 35.4l386 386c9.8 9.8 25.6 9.8 35.4 0 9.8-9.8 9.8-25.6 0-35.4L354.4 384l368.3-368.3c9.8-9.8 9.8-25.6 0-35.4-4.9-4.9-11.3-7.3-17.7-7.3z"  horiz-adv-x="1024" />

    
    <glyph glyph-name="ren" unicode="&#58889;" d="M751.35987587 479.11039627c0-3.70861033 0.07726307-7.41721988 0-11.1258302-0.15452537-5.56291549-0.77262683-11.04856791-1.313466-16.61148262-0.77262683-7.49448294-2.08609282-14.91170283-3.55408495-22.25166118-1.62251673-8.03532212-3.78587262-15.8388558-6.33554232-23.56512639-5.87196623-18.15673704-13.83002527-35.38632113-23.79691483-51.68875302-4.86755095-7.88079675-10.12141493-15.52980506-15.83885503-22.79249957-7.88079675-10.04415264-16.37969419-19.47020304-25.80574536-28.12362586-10.35320337-9.58057577-21.47903358-18.23399935-33.3002283-25.88300844-13.13466073-8.42163515-26.88742293-15.60706736-41.41281274-21.40177051-9.65783885-3.86313569-19.47020304-7.10816915-29.5143549-9.65783882-10.27594031-2.62693199-20.70640597-4.40397409-31.29139778-5.79470316-14.06181292-1.85430517-28.12362662-1.6997798-42.18543955-1.23620293-6.87638148 0.23178844-13.7527622 1.2362037-20.62914367 2.16335589-9.03973737 1.2362037-18.00221168 3.0905081-26.81015987 5.48565242-10.97130483 2.93598273-21.71082124 6.64459305-32.14128768 11.12583021-14.37086442 6.18101695-27.96910126 13.59823683-40.87197354 22.3289227-16.07064345 10.89404177-30.44150788 23.56512639-43.49890555 37.85872854-11.74393166 12.90287229-21.94260967 27.04194829-30.59603325 42.18543954-9.03973737 15.68433042-16.14790652 32.21854998-21.40177051 49.52539713-3.16777116 10.50772874-5.64017778 21.24724514-7.26269528 32.06402462-0.69536453 4.63576253-1.15894063 9.27152504-1.69977902 13.98455061-0.69536453 6.72185612-1.00441526 13.52097453-1.2362037 20.32009217-0.15452537 5.02207631 0.15452537 10.12141493 0.3863138 15.14349127 0.23178844 4.55850023 0.61810147 9.11699967 1.00441526 13.67549989 0.4635761 4.55850023 1.00441526 9.03973737 1.7770421 13.59823683 2.93598273 17.22958408 7.72627138 33.91832977 14.21633829 50.14349859 4.17218642 10.43046567 9.19426274 20.47461832 14.83444053 30.20971945 6.64459305 11.35761863 14.06181292 22.09713503 22.40618576 32.21855075 6.95364378 8.49889822 14.44812672 16.61148262 22.56071191 24.0287025 15.68433042 14.29360136 32.75938914 26.57837219 51.61148995 36.46799948 13.67549991 7.18543222 27.96910126 12.98013536 42.72627871 17.53863481 9.88962651 3.01324579 20.01104221 5.33112705 30.28698253 7.03090685 7.26269451 1.15894063 14.67991516 1.93156746 22.01987197 2.54966892 9.11699967 0.77262683 18.23399935 0.4635761 27.42826208 0.38631379 3.55408495 0 7.10816915-0.54083918 10.6622541-0.92715218 2.93598273-0.30905074 5.87196623-0.69536453 8.80794896-0.92715297 7.88079675-0.77262683 15.60706736-2.39514434 23.33333873-4.09492336 8.11258441-1.7770421 15.99338116-4.09492335 23.79691406-6.79911841 10.198678-3.47682188 20.08830451-7.6490083 29.66888105-12.43929621 11.28035557-5.64017778 22.01987197-12.20750853 32.29581228-19.54746611 6.10375387-4.40397409 12.05298239-9.03973737 17.69316096-13.98455062 7.49448294-6.49006769 14.5253898-13.44371146 21.16998284-20.70640598 7.95805904-8.65342357 15.06622819-18.00221168 21.63355817-27.73731282a241.52323177 241.52323177 0 0 0 20.16556758-36.62252484c5.17660169-11.74393166 9.4260504-23.87417713 12.59382156-36.31347333 2.24061896-8.57616051 3.86313569-17.30684715 5.17660169-26.11479609 1.6997798-11.20309328 2.62693199-22.40618577 2.24061896-33.68654134z m-48.2891942-0.07726306c0 3.32229653 0.15452537 6.64459305 0 9.96688956-0.30905074 5.94922852-1.08167756 11.74393166-1.85430516 17.69316096-1.00441526 7.6490083-2.70419506 15.06622819-4.71302483 22.40618576-1.46799136 5.64017778-3.32229653 11.12583021-5.33112705 16.53421956-3.78587262 10.12141493-8.42163515 19.77925378-13.75276218 29.05077959-4.09492335 7.10816915-8.65342357 13.83002527-13.59823761 20.32009218-6.95364378 9.19426274-14.75717745 17.61589788-23.25607567 25.41943156-8.42163515 7.6490083-17.38410945 14.60265209-27.04194828 20.62914367-12.90287229 8.18984748-26.57837219 14.75717745-41.02649893 19.62472841-8.88521201 3.01324579-17.92494862 5.33112705-27.19647365 6.95364378-7.80353368 1.39072907-15.60706736 2.47240663-23.4878641 2.78145736-3.0905081 0.07726307-6.18101695-0.07726307-9.27152503 0.54083918-1.15894063 0.23178844-2.47240663-0.07726307-3.70861034-0.15452537-0.8498899-0.07726307-1.6997798-0.30905074-2.5496697-0.30905074-4.79028788 0-9.58057577-0.23178844-14.44812672-0.77262683-7.49448294-0.8498899-14.91170283-1.93156746-22.25166041-3.63134726-11.74393166-2.62693199-23.10155031-6.33554231-34.07285513-11.12583096-11.04856791-4.79028788-21.55629587-10.50772874-31.44592238-17.22958409-11.35761863-7.72627138-21.86534661-16.45695726-31.29139778-26.50110913-3.70861033-3.94039799-7.33995758-7.95805904-10.81677947-12.20750852-7.80353368-9.65783885-14.60265209-19.93377915-20.39735524-30.82782092-5.02207631-9.50331347-9.4260504-19.31567768-12.67108464-29.59161799-3.0905081-9.65783885-5.64017778-19.39293997-7.10816913-29.51435569-1.15894063-7.72627138-2.16335589-15.37527892-2.24061898-23.1788126 0-0.61810147 0-1.2362037-0.15452536-1.85430515-0.61810147-2.93598273-0.54083918-5.94922852-0.23178843-8.88521201 0.54083918-5.25386398 0.38631381-10.58499104 1.08167833-15.91611809 0.69536453-5.02207631 1.15894063-10.04415264 2.1633559-14.98896589 1.39072907-7.18543222 3.16777116-14.21633828 5.25386398-21.16998208 2.5496697-8.49889822 5.71744086-16.84327105 9.50331347-24.87859317 4.94481325-10.50772874 10.7395164-20.55188061 17.53863559-30.05519409 5.94922852-8.34437285 12.59382157-16.22516883 19.70199071-23.56512638 8.03532212-8.26710978 16.84327105-15.60706736 26.19205839-22.32892349 8.34437285-6.02649158 17.22958408-11.12583021 26.34658453-15.76159272 7.03090685-3.55408495 14.37086442-6.49006769 21.86534661-9.11699967 6.18101695-2.16335589 12.43929621-3.94039799 18.85210157-5.40838934 7.18543222-1.62251673 14.44812672-3.0905081 21.86534661-3.78587262 6.64459305-0.69536453 13.2891861-1.2362037 19.93377914-1.31346678 7.88079675-0.15452537 15.76159272 0.61810147 23.64238947 1.31346678 6.87638148 0.69536453 13.7527622 1.85430517 20.47461831 3.3995588 14.75717745 3.39955959 28.89625345 8.42163515 42.41722799 15.14349127 5.87196623 2.93598273 11.512144 6.18101695 17.07505871 9.65783884 9.19426274 5.64017778 17.77042326 12.13024547 25.7284823 19.31567768 6.49006769 5.87196623 12.67108463 12.13024547 18.38852472 18.77483852 4.63576253 5.48565242 8.96247431 11.20309328 13.05739842 17.0750587 3.78587262 5.48565242 7.03090685 11.28035557 10.35320338 17.15232179 5.17660169 9.19426274 9.27152504 18.85210158 12.59382156 28.8189904 4.40397409 13.13466073 7.49448294 26.57837219 8.96247431 40.40839745 0.61810147 7.03090685 1.08167756 14.06181292 0.92715221 21.09271978zM511.45916082 214.79466493999996c4.79028788 0 9.65783885 0.30905074 14.44812674-0.0772623 5.40838934-0.4635761 10.81677947-0.38631381 16.22516958-0.92715296 4.55850023-0.4635761 9.11699967-0.8498899 13.67549913-1.15894064 3.78587262-0.23178844 7.6490083-0.77262683 11.35761864-1.46799136 2.70419506-0.54083918 5.40838934-0.69536453 8.03532212-1.15894063 4.63576253-0.69536453 9.19426274-1.62251673 13.83002448-2.47240662 8.88521201-1.54525443 17.61589788-3.63134725 26.34658453-5.94922851 18.69757544-4.86755095 36.85431249-11.04856791 54.62473575-18.54305086 9.34878811-3.94039799 18.54305008-8.18984748 27.50552516-12.82560999 17.30684715-8.80794893 33.91832977-18.85210158 49.67992249-30.13245639 6.49006769-4.71302558 12.98013536-9.50331347 19.23841462-14.44812673 5.25386398-4.09492335 10.27594031-8.49889822 15.29801662-12.90287307 9.11699967-7.80353368 17.46137252-16.45695726 25.88300766-24.87859239 2.93598273-2.93598273 5.25386398-6.25827925 6.18101695-10.35320337 1.85430517-8.18984748 0.4635761-15.76159272-5.25386399-22.09713504-3.55408495-3.94039799-7.6490083-6.95364378-12.98013535-8.18984671-7.6490083-1.7770421-14.67991516-0.23178844-21.09271978 4.17218643-2.00883053 1.39072907-3.70861033 3.16777116-5.40839012 5.02207554-4.09492335 4.48123716-8.34437285 8.80794893-12.82561 12.82561-3.63134725 3.16777116-7.10816915 6.56732998-10.66225333 9.73510191-7.80353368 6.87638148-15.8388558 13.36644917-24.26049171 19.47020228-7.18543222 5.25386398-14.5253898 10.198678-22.09713503 14.91170359-12.90287229 8.11258441-26.34658375 15.22075356-40.09934596 21.55629587-16.07064345 7.33995758-32.68212607 13.36644917-49.67992249 18.15673705-11.66666937 3.32229653-23.41060103 6.02649158-35.38632114 7.88079598-5.33112705 0.8498899-10.6622541 1.85430517-16.07064422 2.626932-3.63134725 0.54083918-7.41721988 0.61810147-11.04856713 1.08167832-6.25827925 0.8498899-12.51655927 0.92715219-18.85210159 1.39072907-7.03090685 0.54083918-14.06181292 0.69536453-21.09271977 0.54083839-6.41280461-0.15452537-12.82560999-0.38631381-19.23841462-1.00441526-0.77262683-0.07726307-1.46799136-0.07726307-2.24061896-0.15452537-5.56291549-0.07726307-11.04856791-0.8498899-16.61148262-1.46799136-5.48565242-0.61810147-11.04856791-1.39072907-16.53421955-2.24061818-7.18543222-1.15894063-14.29360136-2.5496697-21.4017705-4.09492413-10.12141493-2.24061896-20.16556758-4.94481325-29.97793179-8.11258442-8.18984748-2.62693199-16.37969419-5.56291549-24.33775323-8.88521123-9.96688957-4.09492335-19.70199071-8.49889822-29.28256725-13.36644916-16.61148262-8.49889822-32.45033842-18.38852472-47.51656661-29.35982955-7.72627138-5.56291549-15.06622819-11.58940629-22.40618576-17.69316097-4.24944872-3.55408495-8.26710978-7.41721988-12.36203391-11.20309249-3.70861033-3.47682188-7.33995758-6.95364378-10.97130483-10.50772875-1.08167756-1.00441526-2.00883053-2.16335589-3.0132458-3.32229652-3.78587262-4.09492335-8.18984748-7.33995758-13.67549989-8.34437283-7.57174523-1.39072907-14.91170283-0.38631381-20.93819441 4.86755095-5.02207631 4.40397409-8.03532212 9.96688957-8.11258441 16.84327028 0 2.24061896-0.23178844 4.48123716 0.30905074 6.64459305 1.00441526 4.40397409 3.16777116 8.26710978 6.18101695 11.66666937 6.79911842 7.72627138 14.37086442 14.60265209 21.94260967 21.55629587 17.77042326 16.37969419 36.93157556 30.98234705 57.25166851 43.88521935 13.36644917 8.49889822 27.19647366 16.14790652 41.49007501 22.94702493 10.89404177 5.25386398 22.09713503 9.88962651 33.37749061 14.13907598 8.57616051 3.24503346 17.22958408 6.10375387 25.96027073 8.73068666 8.88521201 2.62693199 17.84768632 5.02207631 26.88742292 6.95364378 7.49448294 1.62251673 14.98896589 3.0905081 22.48344884 4.40397409 5.71744086 1.00441526 11.512144 1.62251673 17.22958408 2.39514432 6.02649158 0.77262683 12.05298239 1.2362037 18.07947398 1.7770421 4.40397409 0.38631381 8.88521201 0.38631381 13.2891861 0.7726276 6.25827925 0.54083918 12.43929621 0.54083918 18.62031314 0.38631303z"  horiz-adv-x="1024" />

    


  </font>
</defs>
</svg>
